<?xml version="1.0" encoding="iso-8859-1"?>
<!-- Generator: Adobe Illustrator 19.0.0, SVG Export Plug-In . SVG Version: 6.00 Build 0)  -->
<svg version="1.1" id="Layer_1" xmlns="http://www.w3.org/2000/svg" xmlns:xlink="http://www.w3.org/1999/xlink" x="0px" y="0px"
	 viewBox="0 0 512 512" style="enable-background:new 0 0 512 512;" xml:space="preserve">
<path style="fill:#D9B43A;" d="M331.699,395.412c-0.001,0-0.001-0.001-0.002-0.001c-1.892-1.232-3.815-2.421-5.769-3.563
	c-20.595-12.076-44.458-19.007-70.057-19.007c-25.599,0-49.206,6.931-69.801,19.007c-1.954,1.141-3.877,2.329-5.769,3.563
	c-0.001,0-0.001,0.001-0.002,0.001l0,0c-0.001,0.001-0.003,0.002-0.005,0.003c-1.151,0.751-2.288,1.523-3.415,2.306
	c-0.301,0.209-0.599,0.421-0.899,0.633c-0.903,0.638-1.797,1.287-2.684,1.945c-0.238,0.177-0.48,0.353-0.717,0.531
	c-2.272,1.71-4.487,3.491-6.648,5.335c-0.167,0.142-0.332,0.285-0.498,0.428c-1.049,0.904-2.087,1.821-3.109,2.756
	c-0.017,0.016-0.035,0.031-0.052,0.047c-2.213,2.026-4.357,4.126-6.436,6.291c-0.042,0.044-0.084,0.088-0.126,0.132
	c-15.846,16.551-27.641,37.01-33.78,59.794c39.371,23.008,85.176,36.206,134.068,36.206s94.696-13.197,134.068-36.206
	C381.071,442.227,359.944,413.819,331.699,395.412z"/>
<path style="fill:#BB9430;" d="M331.699,395.412c-0.001,0-0.001-0.001-0.002-0.001c-1.892-1.232-3.815-2.421-5.769-3.563
	c-20.595-12.076-44.458-19.007-70.057-19.007l0.127,138.976c48.892,0,94.696-13.197,134.068-36.206
	C381.071,442.227,359.944,413.819,331.699,395.412z"/>
<g style="opacity:0.4;">
	<circle style="fill:#F6EEA4;" cx="186.576" cy="420.592" r="17.356"/>
	<circle style="fill:#F6EEA4;" cx="151.864" cy="455.304" r="17.356"/>
	<circle style="fill:#F6EEA4;" cx="255.999" cy="420.592" r="17.356"/>
	<circle style="fill:#F6EEA4;" cx="255.999" cy="490.016" r="17.356"/>
	<circle style="fill:#F6EEA4;" cx="221.288" cy="455.304" r="17.356"/>
	<circle style="fill:#F6EEA4;" cx="325.423" cy="420.592" r="17.356"/>
	<circle style="fill:#F6EEA4;" cx="290.711" cy="455.304" r="17.356"/>
	<circle style="fill:#F6EEA4;" cx="360.135" cy="455.304" r="17.356"/>
	<path style="fill:#F6EEA4;" d="M203.932,490.016c0-9.585-7.771-17.356-17.356-17.356s-17.356,7.771-17.356,17.356
		c0,2.879,0.712,5.586,1.952,7.977c7.943,2.671,16.053,4.978,24.311,6.9C200.538,501.858,203.932,496.34,203.932,490.016z"/>
	<path style="fill:#F6EEA4;" d="M342.779,490.016c0-9.585-7.771-17.356-17.356-17.356c-9.585,0-17.356,7.771-17.356,17.356
		c0,6.324,3.394,11.842,8.449,14.876c8.258-1.922,16.368-4.228,24.311-6.9C342.068,495.602,342.779,492.895,342.779,490.016z"/>
</g>
<path style="opacity:0.3;fill:#80531A;enable-background:new    ;" d="M390.067,475.612c-5.732-21.273-16.406-40.51-30.692-56.441
	c0.003-0.002,0.007-0.006,0.01-0.008c-0.078-0.087-0.163-0.159-0.241-0.244c-5.975-6.631-12.562-12.699-19.704-18.078l-0.495-0.167
	c-2.391-1.785-4.83-3.507-7.336-5.137c-1.864-1.213-3.758-2.382-5.682-3.506c-20.387-11.943-44.057-18.842-69.354-18.994
	l-0.574-0.193v0.183c-0.095,0-0.189-0.005-0.283-0.005c-25.621,0-49.027,6.931-69.646,19.009c-0.916,0.535-1.825,1.081-2.726,1.637
	c-0.872,0.537-1.737,1.085-2.595,1.641c-0.025,0.016-0.052,0.032-0.078,0.049c-0.001,0-0.002,0.001-0.002,0.002
	c-0.093,0.06-0.187,0.118-0.281,0.178c0.002,0.003,0.005,0.006,0.007,0.009c-2.318,1.508-4.562,3.115-6.777,4.759l-0.321-0.006
	c-0.238,0.177-0.48,0.353-0.717,0.531c-2.272,1.71-4.487,3.491-6.648,5.335c-0.167,0.142-0.332,0.285-0.498,0.428
	c-1.049,0.904-2.087,1.821-3.109,2.756l-1.62,1.464c-1.67,1.509-3.226,3.134-4.769,4.772c-0.074,0.079-0.149,0.156-0.224,0.235
	c-1.03,1.076-2.041,2.169-3.036,3.278c10.709,8.502,22.103,15.785,34.006,21.575c22.327,10.86,45.648,16.367,69.318,16.367
	c27.341,0,53.984-7.239,78.713-21.2c6.142-3.468,13.866-1.706,18.043,3.977c9.682,13.173,16.752,28.377,20.421,44.856
	C378.926,481.847,384.561,478.829,390.067,475.612z"/>
<path style="fill:#BB9430;" d="M153.885,491.499c9.11,3.791,18.474,7.09,28.062,9.865v-62.573
	C167.923,452.977,157.945,471.171,153.885,491.499z"/>
<path style="fill:#9E7325;" d="M330.051,438.792v62.573c9.589-2.773,18.953-6.075,28.062-9.865
	C354.053,471.171,344.076,452.977,330.051,438.792z"/>
<path style="fill:#C1BDAB;" d="M435.344,193.808c-8.488,0-16.494,2.045-23.575,5.648c-0.001-0.002-0.001-0.006-0.002-0.008l0,0
	c0-0.001-0.001-0.003-0.001-0.005c-0.552-2.086-1.139-4.167-1.76-6.238c-0.016-0.054-0.034-0.11-0.051-0.164
	c-0.609-2.024-1.248-4.04-1.922-6.048c-0.028-0.082-0.057-0.164-0.084-0.246c-0.668-1.982-1.364-3.956-2.093-5.921
	c-0.036-0.095-0.072-0.19-0.108-0.286c-0.725-1.947-1.481-3.885-2.266-5.813c-0.017-0.042-0.031-0.083-0.049-0.125
	c-0.001,0-0.001,0.001-0.002,0.001c-0.583,0.263-1.169,0.522-1.746,0.798l-37.16-37.16c-5.395-5.395-11.14-10.331-17.172-14.813
	c-19.21-14.27-41.425-23.808-65.309-27.885c-0.007-0.023-0.012-0.051-0.012-0.086h-52.068c0,0.034-0.005,0.062-0.012,0.086
	c-31.384,5.357-59.902,20.119-82.481,42.697l-37.158,37.159l-0.002,0.001c-0.579-0.278-1.163-0.537-1.746-0.798
	c-0.001,0-0.002-0.001-0.003-0.001c-0.028,0.068-0.052,0.138-0.08,0.206c-0.758,1.863-1.486,3.735-2.189,5.616
	c-0.078,0.207-0.154,0.415-0.231,0.622c-0.688,1.861-1.349,3.73-1.982,5.607c-0.074,0.218-0.145,0.436-0.218,0.655
	c-0.629,1.888-1.235,3.784-1.807,5.686c-0.052,0.172-0.101,0.346-0.152,0.518c-0.587,1.97-1.149,3.948-1.673,5.931
	c0,0.001,0,0.001,0,0.002l97.841,217.815c17.989,8.751,37.515,13.745,57.928,13.745c74,0,136.407-65.453,155.772-138.709
	c7.079,3.602,15.085,5.646,23.573,5.646c28.756,0,52.068-23.311,52.068-52.068C487.412,217.119,464.101,193.808,435.344,193.808z"/>
<path style="fill:#E7E4CD;" d="M383.276,234.305c0-0.022,0-0.044,0-0.066c-0.001-3.728-1.85-7.234-4.919-9.35
	c-1.73-1.193-3.372-2.554-4.9-4.082l-45.749-45.749c-14.942-14.943-33.808-24.697-54.557-28.212l-0.553-0.095
	c-10.97-1.878-22.18-1.88-33.151-0.008l-0.602,0.103c-20.748,3.514-39.613,13.269-54.555,28.211l-45.748,45.748
	c-0.037,0.037-0.073,0.073-0.11,0.11c-5.121,5.076-13.657,3.81-17.44-2.327c-5.016-8.135-12.207-14.787-20.762-19.142
	c-0.001,0.002-0.001,0.006-0.002,0.008c-8.091-4.117-17.393-6.198-27.242-5.519c-26.371,1.819-47.42,23.616-48.364,50.033
	c-1.059,29.627,22.644,53.977,52.033,53.977c8.493,0,16.502-2.046,23.584-5.652c14.024,53.046,50.608,101.997,97.832,124.97
	c7.583,1.416,15.332,2.174,23.216,2.174C310.752,419.435,383.276,323.769,383.276,234.305z"/>
<circle style="fill:#ADA999;" cx="435.344" cy="245.876" r="17.356"/>
<circle style="fill:#C1BDAB;" cx="76.655" cy="245.876" r="17.356"/>
<g>
	<path style="fill:#DFB296;" d="M172.691,273.067H161.12c-4.794,0-8.678-3.885-8.678-8.678s3.884-8.678,8.678-8.678h11.571
		c4.794,0,8.678,3.885,8.678,8.678S177.485,273.067,172.691,273.067z"/>
	<path style="fill:#DFB296;" d="M350.879,273.067h-11.571c-4.794,0-8.678-3.885-8.678-8.678s3.884-8.678,8.678-8.678h11.571
		c4.794,0,8.678,3.885,8.678,8.678S355.672,273.067,350.879,273.067z"/>
</g>
<path style="fill:#C1BDAB;" d="M255.999,323.977c-16.208,0-31.458-6.323-42.94-17.807c-4.964-4.964-6.448-12.429-3.762-18.914
	s9.015-10.713,16.035-10.713h61.334c7.02,0,13.348,4.228,16.035,10.713c2.687,6.485,1.202,13.951-3.762,18.914
	C287.456,317.654,272.208,323.977,255.999,323.977z"/>
<path style="fill:#8D472E;" d="M255.999,237.198c-14.356,0-26.034,11.678-26.034,26.034c0,14.356,11.678,26.034,26.034,26.034
	c14.356,0,26.034-11.678,26.034-26.034C282.033,248.876,270.355,237.198,255.999,237.198z"/>
<path style="fill:#AB5034;" d="M246.164,265.546c-4.786,0-8.678-3.892-8.678-8.678s3.892-8.678,8.678-8.678s8.678,3.892,8.678,8.678
	S250.95,265.546,246.164,265.546z"/>
<path style="fill:#7C9554;" d="M435.344,56.658c-0.078-0.079-0.15-0.161-0.229-0.238C403.452,24.592,329.726,8.678,255.999,8.678
	S108.547,24.592,76.884,56.42c-0.078,0.079-0.152,0.16-0.229,0.238C41.61,92.168,40.219,158.082,56.997,197.66
	c1.365-0.558,2.754-1.069,4.175-1.51c1.63-0.507,3.295-0.936,4.99-1.283c3.389-0.693,6.9-1.058,10.493-1.058
	c0.993,0,1.976,0.034,2.955,0.089c0.288,0.016,0.573,0.044,0.86,0.066c0.701,0.051,1.4,0.111,2.093,0.189
	c0.304,0.035,0.607,0.075,0.911,0.116c0.694,0.09,1.384,0.194,2.07,0.312c0.263,0.045,0.524,0.091,0.784,0.14
	c0.272,0.051,0.548,0.091,0.819,0.146c0.506,0.103,1.003,0.229,1.503,0.347c0.15,0.036,0.301,0.067,0.45,0.104
	c1.023,0.251,2.038,0.522,3.036,0.832c2.808,0.874,5.506,1.991,8.089,3.305l9.173,4.653c3.571,1.812,7.902,1.121,10.733-1.71
	l8.59-8.59l37.159-37.159c19.391-19.391,43.487-31.215,68.618-35.471c12.469-2.112,21.499-13.074,21.499-25.72
	c0,12.646,9.031,23.609,21.499,25.72c25.13,4.256,49.227,16.08,68.618,35.471l37.159,37.16l8.59,8.59
	c2.831,2.831,7.162,3.521,10.733,1.71l9.173-4.653c2.583-1.313,5.281-2.432,8.089-3.305c0.999-0.31,2.013-0.581,3.036-0.832
	c0.149-0.037,0.301-0.068,0.45-0.104c0.5-0.118,0.997-0.243,1.503-0.347c0.271-0.056,0.547-0.095,0.819-0.146
	c0.26-0.049,0.522-0.095,0.784-0.14c0.685-0.118,1.375-0.222,2.07-0.312c0.303-0.04,0.606-0.081,0.911-0.116
	c0.693-0.079,1.392-0.138,2.093-0.189c0.287-0.021,0.572-0.049,0.86-0.066c0.979-0.054,1.964-0.089,2.955-0.089
	c3.595,0,7.104,0.364,10.493,1.058c1.695,0.347,3.36,0.776,4.99,1.283c1.421,0.442,2.809,0.953,4.175,1.51
	C471.78,158.082,470.389,92.168,435.344,56.658z"/>
<path style="fill:#707F51;" d="M435.344,56.658c-0.078-0.079-0.15-0.161-0.229-0.238c-17.034-17.122-46.252-29.631-81.085-37.542
	l10.063,14.088c5.953,8.334,9.929,17.585,11.951,27.137c6.194,29.238-24.034,52.536-51.094,39.848
	c-0.127-0.06-0.255-0.119-0.382-0.178c-16.47-7.67-32.406-16.5-47.022-27.292c-9.746-7.197-21.548-16.363-21.548-16.363
	s-11.8,9.166-21.548,16.362c-14.617,10.791-30.552,19.621-47.023,27.292c-16.99,7.912-32.552,18.792-46.092,32.332l-28.421,28.421
	c-2.724,2.724-6.731,3.645-10.408,2.498c-0.02-0.006-0.039-0.013-0.059-0.019c-1.583-0.493-3.246-0.951-5.078-1.4
	c-0.27-0.067-0.542-0.13-0.831-0.196l-0.211-0.05c-0.724-0.174-1.45-0.341-2.237-0.503c-0.509-0.104-1.022-0.198-1.574-0.292
	c-0.359-0.066-0.719-0.13-1.081-0.192c-1.144-0.197-2.296-0.371-3.476-0.525l-0.145-0.02c-0.449-0.059-0.899-0.117-1.35-0.168
	c-1.156-0.131-2.319-0.234-3.46-0.317c-0.476-0.039-0.95-0.075-1.459-0.104c-1.718-0.096-3.32-0.143-4.896-0.143
	c-5.863,0-11.733,0.592-17.455,1.763c-2.804,0.574-5.609,1.296-8.326,2.141c-0.934,0.29-1.869,0.613-2.808,0.943
	c1.682,12.294,4.739,23.827,8.933,33.717c1.365-0.558,2.754-1.069,4.175-1.51c1.63-0.507,3.295-0.936,4.99-1.283
	c3.389-0.693,6.9-1.058,10.493-1.058c0.993,0,1.976,0.034,2.955,0.089c0.288,0.016,0.573,0.044,0.86,0.066
	c0.701,0.051,1.4,0.111,2.093,0.189c0.304,0.035,0.607,0.075,0.911,0.116c0.694,0.09,1.384,0.194,2.07,0.312
	c0.263,0.045,0.524,0.091,0.784,0.14c0.272,0.051,0.548,0.091,0.819,0.146c0.506,0.103,1.003,0.229,1.503,0.347
	c0.15,0.036,0.301,0.067,0.45,0.104c1.023,0.251,2.038,0.522,3.036,0.832c2.808,0.874,5.506,1.991,8.089,3.305l9.173,4.654
	c3.571,1.811,7.902,1.121,10.733-1.71l8.59-8.59l37.159-37.159c19.391-19.391,43.487-31.215,68.618-35.471
	c12.468-2.112,21.499-13.074,21.499-25.72c0,12.646,9.031,23.609,21.499,25.72c25.13,4.256,49.227,16.08,68.618,35.471l37.16,37.161
	l8.59,8.59c2.831,2.831,7.162,3.521,10.733,1.71l9.173-4.654c2.583-1.313,5.281-2.432,8.089-3.305
	c0.999-0.31,2.013-0.581,3.036-0.832c0.149-0.037,0.301-0.068,0.45-0.104c0.5-0.118,0.997-0.243,1.503-0.347
	c0.271-0.056,0.547-0.095,0.819-0.146c0.26-0.049,0.522-0.095,0.784-0.14c0.685-0.118,1.375-0.222,2.07-0.312
	c0.303-0.04,0.606-0.081,0.911-0.116c0.693-0.079,1.392-0.138,2.093-0.189c0.287-0.021,0.572-0.049,0.86-0.066
	c0.979-0.054,1.964-0.089,2.955-0.089c3.595,0,7.104,0.364,10.493,1.058c1.695,0.347,3.36,0.776,4.99,1.283
	c1.421,0.442,2.809,0.953,4.175,1.51c4.192-9.889,7.25-21.424,8.933-33.717c-0.01-0.003-0.02-0.007-0.03-0.01
	C468.959,127.029,461.634,83.297,435.344,56.658z"/>
<circle cx="255.71" cy="468.61" r="8.678"/>
<circle cx="255.999" cy="503.322" r="8.678"/>
<path d="M335.771,432.229c-3.389-3.389-8.884-3.389-12.272,0c-3.39,3.389-3.39,8.883-0.001,12.272
	c13.431,13.431,22.469,30.327,26.136,48.858c0.818,4.133,4.444,6.996,8.504,6.996c0.558,0,1.126-0.054,1.694-0.167
	c4.701-0.93,7.758-5.496,6.828-10.197C362.323,468.074,351.641,448.1,335.771,432.229z"/>
<path d="M176.228,432.229c-15.87,15.871-26.551,35.845-30.888,57.762c-0.93,4.701,2.127,9.267,6.828,10.197
	c0.569,0.112,1.135,0.167,1.694,0.167c4.059,0,7.686-2.863,8.504-6.996c3.667-18.531,12.703-35.427,26.136-48.858
	c3.389-3.389,3.389-8.884-0.001-12.272C185.112,428.839,179.617,428.84,176.228,432.229z"/>
<path d="M465.907,193.412c7.07-20.436,9.742-44.973,7.333-68.657c-2.176-21.389-9.445-51.623-31.699-74.172l-0.273-0.283
	C404.373,13.214,321.373,0,255.999,0S107.626,13.214,70.702,50.328l-0.223,0.235c-13.947,14.132-23.957,33.73-28.949,56.675
	c-4.349,19.992-4.789,42.454-1.237,63.248c0.805,4.724,5.281,7.895,10.014,7.094c4.724-0.806,7.899-5.29,7.093-10.016
	c-5.307-31.083-1.832-77.185,25.459-104.838l0.177-0.187c27.306-27.448,95.198-45.183,172.963-45.183s145.658,17.735,172.929,45.15
	l0.24,0.248c29.819,30.217,33.631,85.854,20.65,124.133c-4.641-1.14-9.486-1.756-14.474-1.756c-9.661,0-18.918,2.218-27.51,6.592
	c-0.002,0.001-0.003,0.001-0.006,0.002l-9.155,4.644c-0.222,0.112-0.492,0.071-0.67-0.106l-45.749-45.749
	c-20.066-20.065-45.415-33.168-73.306-37.891c-8.268-1.4-14.27-8.619-14.27-17.164V48.79c0-4.793-3.884-8.678-8.678-8.678
	c-4.794,0-8.678,3.885-8.678,8.678v46.668c0,8.545-6.002,15.764-14.27,17.164c-27.891,4.723-53.241,17.826-73.306,37.891
	l-45.75,45.748c-0.178,0.178-0.449,0.219-0.671,0.108l-9.163-4.649c-8.595-4.373-17.849-6.589-27.508-6.589
	c-33.495,0-60.746,27.25-60.746,60.746s27.251,60.746,60.746,60.746c6.161,0,12.158-0.903,17.923-2.69
	c12.082,38.355,34.978,72.901,63.84,97.471c-21.6,19.107-37.378,44.347-44.865,72.136c-1.246,4.628,1.494,9.39,6.122,10.637
	c0.756,0.204,1.516,0.301,2.263,0.301c3.826,0,7.33-2.551,8.374-6.423c6.895-25.59,21.766-48.739,42.139-65.84
	c7.022,4.88,14.312,9.199,21.823,12.853c19.942,9.7,40.709,14.618,61.726,14.618c29.264,0,57.759-9.408,83.607-27.42
	c20.343,17.094,35.193,40.223,42.082,65.789c1.043,3.872,4.547,6.422,8.372,6.422c0.747,0,1.508-0.097,2.263-0.301
	c4.628-1.247,7.368-6.01,6.121-10.637c-7.485-27.775-23.25-53.005-44.834-72.108c2.254-1.923,4.487-3.907,6.691-5.969
	c28.423-26.597,49.682-62.447,59.857-100.943c0.007-0.024,0.009-0.05,0.016-0.074s0.018-0.046,0.024-0.071
	c4.289-16.272,6.465-32.587,6.465-48.495c0-4.786,3.892-8.678,8.678-8.678s8.678,3.892,8.678,8.678c0,4.793,3.884,8.678,8.678,8.678
	c4.794,0,8.678-3.885,8.678-8.678c0-14.356-11.679-26.034-26.034-26.034s-26.034,11.678-26.034,26.034
	c0,14.415-1.982,29.242-5.891,44.071c-0.003,0.013-0.005,0.025-0.008,0.038c-0.009,0.032-0.022,0.063-0.03,0.096
	c-16.946,64.108-74.359,132.245-147.381,132.245c-18.364,0-36.577-4.33-54.132-12.87c-43.657-21.238-79.384-66.983-93.238-119.385
	c-0.022-0.081-0.053-0.157-0.078-0.237c-3.889-14.792-5.863-29.581-5.863-43.959c0-14.356-11.679-26.034-26.034-26.034
	s-26.034,11.678-26.034,26.034c0,4.793,3.884,8.678,8.678,8.678s8.678-3.885,8.678-8.678c0-4.786,3.892-8.678,8.678-8.678
	c4.786,0,8.678,3.892,8.678,8.678c0,13.552,1.593,27.399,4.713,41.263c-4.298,1.401-8.777,2.125-13.391,2.125
	c-23.926,0-43.39-19.464-43.39-43.39c0-23.926,19.464-43.39,43.39-43.39c6.897,0,13.504,1.583,19.647,4.707l9.173,4.653
	c6.933,3.519,15.292,2.189,20.795-3.313l45.749-45.749c17.503-17.503,39.61-28.932,63.93-33.051
	c8.027-1.358,14.99-5.413,20.051-11.158c5.061,5.745,12.025,9.798,20.051,11.158c24.32,4.119,46.427,15.549,63.93,33.051
	l45.75,45.75c5.501,5.501,13.859,6.831,20.794,3.312l9.173-4.653c0.007-0.002,0.013-0.006,0.02-0.009
	c6.129-3.118,12.733-4.699,19.628-4.699c23.926,0,43.39,19.464,43.39,43.39c0,22.373-17.437,41.365-39.698,43.236
	c-4.776,0.401-8.322,4.598-7.921,9.374c0.4,4.776,4.622,8.32,9.375,7.92c15.124-1.272,29.145-8.131,39.479-19.316
	c10.395-11.251,16.121-25.888,16.121-41.215C496.09,223.519,483.941,203.958,465.907,193.412z"/>
<path d="M161.12,255.711c-4.794,0-8.678,3.885-8.678,8.678s3.884,8.678,8.678,8.678h11.571c4.794,0,8.678-3.885,8.678-8.678
	s-3.884-8.678-8.678-8.678H161.12z"/>
<path d="M339.308,273.067h11.571c4.794,0,8.678-3.885,8.678-8.678s-3.884-8.678-8.678-8.678h-11.571
	c-4.794,0-8.678,3.885-8.678,8.678S334.514,273.067,339.308,273.067z"/>
<path d="M255.999,332.655c18.527,0,35.955-7.227,49.077-20.349c7.471-7.472,9.686-18.609,5.642-28.371
	c-3.566-8.609-11.329-14.523-20.359-15.804c0.228-1.601,0.352-3.236,0.352-4.899c0-6.489-1.81-12.825-5.236-18.321
	c-2.535-4.068-7.887-5.31-11.955-2.775c-4.068,2.535-5.31,7.888-2.775,11.955c1.708,2.74,2.61,5.901,2.61,9.142
	c0,9.57-7.786,17.356-17.356,17.356c-9.57,0-17.356-7.786-17.356-17.356c0-9.57,7.786-17.356,17.356-17.356
	c4.794,0,8.678-3.885,8.678-8.678c0-4.793-3.884-8.678-8.678-8.678c-19.14,0-34.712,15.572-34.712,34.712
	c0,1.664,0.125,3.298,0.352,4.899c-9.03,1.281-16.794,7.196-20.357,15.803c-4.045,9.762-1.83,20.899,5.641,28.372
	C220.045,325.428,237.473,332.655,255.999,332.655z M217.317,290.576c1.347-3.254,4.494-5.356,8.016-5.356
	c1.173,0,2.291-0.236,3.313-0.658c6.358,8.135,16.252,13.381,27.354,13.381c11.102,0,20.996-5.245,27.354-13.381
	c1.021,0.422,2.138,0.658,3.313,0.658c3.522,0,6.669,2.102,8.017,5.357c1.348,3.255,0.61,6.967-1.88,9.457
	c-9.843,9.843-22.913,15.265-36.804,15.265c-13.891,0-26.961-5.422-36.804-15.264C216.706,297.544,215.967,293.831,217.317,290.576z
	"/>
<path d="M182.06,205.055c0.889,0,1.792-0.138,2.683-0.427c8.781-2.852,18.048-2.854,26.801-0.005
	c4.559,1.486,9.456-1.008,10.938-5.565c1.485-4.557-1.008-9.454-5.565-10.938c-12.265-3.993-25.244-3.993-37.536,0.001
	c-4.558,1.481-7.053,6.377-5.571,10.934C175,202.723,178.402,205.055,182.06,205.055z"/>
<path d="M297.766,205.055c0.889,0,1.792-0.138,2.683-0.427c8.781-2.852,18.048-2.854,26.801-0.005
	c4.559,1.486,9.456-1.008,10.938-5.565c1.484-4.557-1.008-9.454-5.565-10.938c-12.265-3.993-25.244-3.993-37.536,0.001
	c-4.558,1.481-7.053,6.377-5.571,10.934C290.707,202.723,294.108,205.055,297.766,205.055z"/>
<circle cx="198.146" cy="245.876" r="17.356"/>
<circle cx="313.853" cy="245.876" r="17.356"/>
<g>
</g>
<g>
</g>
<g>
</g>
<g>
</g>
<g>
</g>
<g>
</g>
<g>
</g>
<g>
</g>
<g>
</g>
<g>
</g>
<g>
</g>
<g>
</g>
<g>
</g>
<g>
</g>
<g>
</g>
</svg>
